<svg xmlns="http://www.w3.org/2000/svg" width="36.5" height="41.704" viewBox="0 0 36.5 41.704">
  <g id="attach" transform="translate(0.25 0.25)" style="isolation: isolate">
    <g id="Group_1978" data-name="Group 1978">
      <path id="Path_1131" data-name="Path 1131" d="M-469-331.131a1.79,1.79,0,0,1,0-2.569l12.845-12.845a12.723,12.723,0,0,1,18.049,0,12.723,12.723,0,0,1,0,18.049l-16.732,16.732a9.065,9.065,0,0,1-12.845,0,9.065,9.065,0,0,1,0-12.845l14.163-14.163a5.487,5.487,0,0,1,7.707,0,5.488,5.488,0,0,1,0,7.707l-10.276,10.276a1.79,1.79,0,0,1-2.569,0,1.79,1.79,0,0,1,0-2.569l10.276-10.276a1.79,1.79,0,0,0,0-2.569,1.79,1.79,0,0,0-2.569,0l-14.163,14.163a5.487,5.487,0,0,0,0,7.707,5.487,5.487,0,0,0,7.707,0l16.732-16.732a9.065,9.065,0,0,0,0-12.845,9.065,9.065,0,0,0-12.845,0l-12.845,12.845a1.934,1.934,0,0,1-2.635-.066" transform="translate(470.35 350.3)" fill="#707070" stroke="#fff" stroke-width="0.5" fill-rule="evenodd"/>
    </g>
  </g>
</svg>
