<svg xmlns="http://www.w3.org/2000/svg" width="58.145" height="56.186" viewBox="0 0 58.145 56.186">
  <path id="Icon_awesome-hands-helping" data-name="Icon awesome-hands-helping" d="M33.38,13.516h-10.4v3.943a4.927,4.927,0,1,1-9.849,0V8.9L8.695,11.643A4.524,4.524,0,0,0,6.568,15.5v3.33L1.1,22.084a2.284,2.284,0,0,0-.8,3.077l5.472,9.758a2.156,2.156,0,0,0,2.989.824l7.072-4.2h9.343a4.447,4.447,0,0,0,4.377-4.506h1.094a2.219,2.219,0,0,0,2.189-2.253V20.275h.547a1.662,1.662,0,0,0,1.642-1.69V15.206A1.662,1.662,0,0,0,33.38,13.516Zm10.1-2.633L38.01,1.125A2.156,2.156,0,0,0,35.021.3L27.949,4.5h-6.99a4.318,4.318,0,0,0-2.319.683L16.349,6.659a2.254,2.254,0,0,0-1.026,1.908v8.892a2.737,2.737,0,1,0,5.472,0v-6.2H33.38a3.89,3.89,0,0,1,3.83,3.943v2.007l5.472-3.253a2.292,2.292,0,0,0,.8-3.077Z" transform="matrix(0.819, 0.574, -0.574, 0.819, 21.482, 0.777)" fill="#5ed5f7" stroke="#f4c842" stroke-width="1"/>
</svg>
