<svg xmlns="http://www.w3.org/2000/svg" width="15.882" height="9.333" viewBox="0 0 15.882 9.333">
  <path id="solid_eye" data-name="solid eye" d="M15.787,68.312A9.021,9.021,0,0,0,7.942,64,9.023,9.023,0,0,0,.1,68.312a.7.7,0,0,0,0,.709,9.021,9.021,0,0,0,7.845,4.312,9.023,9.023,0,0,0,7.845-4.312.7.7,0,0,0,0-.709ZM7.942,72.167a3.528,3.528,0,1,1,0-7,3.528,3.528,0,1,1,0,7Zm0-5.833a2.956,2.956,0,0,0-.7.092,1.063,1.063,0,0,1-.13,1.512,1.454,1.454,0,0,1-1.715.114,2.2,2.2,0,0,0,1.077,2.543,2.932,2.932,0,0,0,3.078-.086,2.171,2.171,0,0,0,.893-2.6,2.639,2.639,0,0,0-2.506-1.578Z" transform="translate(-0.001 -64)" fill="#630909"/>
</svg>
