<svg xmlns="http://www.w3.org/2000/svg" width="38.91" height="30.466" viewBox="0 0 38.91 30.466">
  <path id="Icon_awesome-comments" data-name="Icon awesome-comments" d="M27.361,12.774c0-5.814-6.123-10.524-13.681-10.524S0,6.959,0,12.774a8.923,8.923,0,0,0,2.5,6.051A14.8,14.8,0,0,1,.145,22.409a.523.523,0,0,0-.1.572.515.515,0,0,0,.48.316A11.581,11.581,0,0,0,6.36,21.653a16.736,16.736,0,0,0,7.32,1.644C21.238,23.3,27.361,18.588,27.361,12.774Zm8.024,14.47a8.911,8.911,0,0,0,2.5-6.051c0-4.4-3.519-8.169-8.5-9.741a9.774,9.774,0,0,1,.086,1.322c0,6.965-7.084,12.628-15.785,12.628a19.719,19.719,0,0,1-2.085-.125c2.072,3.782,6.939,6.439,12.609,6.439a16.644,16.644,0,0,0,7.32-1.644,11.581,11.581,0,0,0,5.834,1.644.519.519,0,0,0,.48-.316.527.527,0,0,0-.1-.572A14.646,14.646,0,0,1,35.385,27.243Z" transform="translate(0.513 -1.75)" fill="#49cef1" stroke="#f6ce4f" stroke-width="1"/>
</svg>
