<svg xmlns="http://www.w3.org/2000/svg" width="50" height="50" viewBox="0 0 50 50">
  <path id="Icon_ionic-ios-contact" data-name="Icon ionic-ios-contact" d="M28.375,3.375h0A24.989,24.989,0,0,0,3.519,25.743a24.091,24.091,0,0,0,0,5.264A24.989,24.989,0,0,0,28.375,53.375h0a25,25,0,0,0,0-50ZM44.7,42.57c-2.728-1.034-7.151-2.548-9.9-3.365-.288-.084-.325-.108-.325-1.286a6.84,6.84,0,0,1,.793-2.8,13.969,13.969,0,0,0,1.106-3.8A8.445,8.445,0,0,0,38,27.365a5.275,5.275,0,0,0-.048-3.317,2.129,2.129,0,0,1-.072-.2,21.614,21.614,0,0,1,.373-4.663,8.587,8.587,0,0,0-1.791-6.166,9.187,9.187,0,0,0-7.031-3.365h-2.1a9.175,9.175,0,0,0-6.971,3.365,8.551,8.551,0,0,0-1.8,6.166,21.614,21.614,0,0,1,.373,4.663c-.024.084-.048.144-.072.216a5.185,5.185,0,0,0-.048,3.317,8.575,8.575,0,0,0,1.635,3.954,14.546,14.546,0,0,0,1.106,3.8A6.715,6.715,0,0,1,22,37.966c0,1.19-.048,1.2-.312,1.286-2.849.841-7.079,2.332-9.615,3.341a21.634,21.634,0,0,1,31.6-29.519A21.634,21.634,0,0,1,44.7,42.57Z" transform="translate(-3.375 -3.375)" fill="#fff"/>
</svg>
