<svg xmlns="http://www.w3.org/2000/svg" width="15.884" height="12.353" viewBox="0 0 15.884 12.353">
  <path id="regular_comments" data-name="regular comments" d="M14.663,41.767a3.8,3.8,0,0,0,1.213-2.708c0-2.206-2.109-4.028-4.858-4.354A5.96,5.96,0,0,0,5.729,32C2.561,32-.007,33.974-.007,36.412a3.806,3.806,0,0,0,1.213,2.708,7.22,7.22,0,0,1-1.04,1.514A.638.638,0,0,0,.63,41.709a6.338,6.338,0,0,0,3.452-1.07,7.857,7.857,0,0,0,.783.135,5.941,5.941,0,0,0,5.275,2.7,7.3,7.3,0,0,0,1.649-.187,6.353,6.353,0,0,0,3.452,1.07.638.638,0,0,0,.463-1.075A7.027,7.027,0,0,1,14.663,41.767ZM3.832,39.222l-.472.306a5.611,5.611,0,0,1-1.188.59c.074-.13.149-.267.221-.408l.427-.858-.684-.676a2.528,2.528,0,0,1-.819-1.765c0-1.674,2.021-3.088,4.412-3.088s4.412,1.415,4.412,3.088S8.119,39.5,5.729,39.5a6.008,6.008,0,0,1-1.351-.154l-.546-.124Zm9.9,1.6-.681.673.427.858c.072.141.146.278.221.408a5.611,5.611,0,0,1-1.188-.59l-.472-.306-.549.127a6.008,6.008,0,0,1-1.351.154,5.131,5.131,0,0,1-3.62-1.37c2.793-.3,4.944-2.134,4.944-4.365,0-.094-.011-.185-.019-.276,1.776.4,3.108,1.566,3.108,2.923A2.528,2.528,0,0,1,13.733,40.824Z" transform="translate(0.007 -32)" fill="#01579a"/>
</svg>
