<svg xmlns="http://www.w3.org/2000/svg" width="14.118" height="12.353" viewBox="0 0 14.118 12.353">
  <path id="regular_hand-point-right" data-name="regular hand-point-right" d="M11.823,34.912H9.447a3.185,3.185,0,0,0,.06-.618A2.3,2.3,0,0,0,6.971,32C5.721,32,5.4,33.338,4.883,34.172a6.786,6.786,0,0,1-.713.917l0,0,0,0c-.422.482-.64.653-.832.653H3.257a.933.933,0,0,0-.61-.221H.882A.842.842,0,0,0,0,36.324v6.353a.842.842,0,0,0,.882.794H2.647a.933.933,0,0,0,.61-.221h.074c.791,0,1.851,1.1,3.507,1.1h.587a2.508,2.508,0,0,0,2.756-2.513,2.56,2.56,0,0,0,.441-1.731,2.569,2.569,0,0,0,.219-.608h.983a2.294,2.294,0,1,0,0-4.588Zm0,3.265H9.314a1.244,1.244,0,0,1-.136,1.683,1.144,1.144,0,0,1-.356,1.479c.18,1.079-.278,1.691-1.4,1.691H6.838c-1.254,0-2.129-.99-3.309-1.094V37.062A2.692,2.692,0,0,0,5.158,35.97a8.01,8.01,0,0,0,.849-1.1c.4-.645.721-1.547.963-1.547.645,0,1.213.243,1.213.971,0,.971-.728,1.463-.728,1.941h4.368a1,1,0,0,1,.971.971A.988.988,0,0,1,11.823,38.176Zm-9.4,3.529a.662.662,0,1,1-.662-.662A.662.662,0,0,1,2.426,41.706Z" transform="translate(0 -32)" fill="#ecc70b"/>
</svg>
