<svg id="eye" xmlns="http://www.w3.org/2000/svg" width="20.847" height="12.427" viewBox="0 0 20.847 12.427">
  <path id="Path_1089" data-name="Path 1089" d="M10.424,98.725c-3.983,0-7.6,2.179-10.26,5.719a.825.825,0,0,0,0,.985c2.665,3.544,6.277,5.723,10.26,5.723s7.6-2.179,10.26-5.719a.825.825,0,0,0,0-.985C18.019,100.9,14.407,98.725,10.424,98.725Zm.286,10.589a4.385,4.385,0,1,1,4.09-4.09A4.387,4.387,0,0,1,10.709,109.314Zm-.132-2.021a2.361,2.361,0,1,1,2.2-2.2A2.357,2.357,0,0,1,10.577,107.292Z" transform="translate(0 -98.725)" fill="#898989"/>
</svg>
