<svg xmlns="http://www.w3.org/2000/svg" viewBox="0 0 1091.47 290.34"><path d="M38.43 19.02C17.21 19.02 0 36.22 0 57.45H0v38.37L38.68 57.45H126.61c21.23 0 38.43-17.21 38.43-38.43h0s-126.61 0-126.61 0zM165.05 231.15H38.44C17.21 231.15 0 213.94 0 192.71v-46.28l38.43-38.43H121.51c0 21.23-17.2 38.43-38.43 38.43H38.44v34.75c0 6.37 5.16 11.53 11.53 11.53H126.62c10.6 0 20.22 4.32 27.17 11.27 6.95 6.95 11.27 16.57 11.27 27.17zM608.74 3.07H647.21V230.9H608.74zM542.63 192.91c0 20.82 16.94 37.76 37.76 37.76h.71V57.45h-38.47V192.91zM360.7 111.94c-4.75-10.74-11.35-20.26-19.6-28.32-8.26-8.05-18.05-14.49-29.09-19.13-11.05-4.65-23.04-7-35.63-7s-24.58 2.36-35.63 7c-11.05 4.64-20.83 11.08-29.09 19.13-8.26 8.05-14.85 17.58-19.6 28.32-4.75 10.74-7.16 22.37-7.16 34.56v143.84h.71c20.82 0 37.76-16.94 37.76-37.76v-39.76c6.37 6.63 14.02 12.05 22.76 16.13 9.31 4.35 19.49 6.55 30.25 6.55 12.59 0 24.58-2.36 35.63-7 11.04-4.65 20.83-11.08 29.09-19.13 8.26-8.05 14.85-17.58 19.6-28.32 4.75-10.74 7.16-22.37 7.16-34.56s-2.41-23.81-7.16-34.56h0zm-84.94-19.68c7.27 0 14.24 1.43 20.71 4.26 6.48 2.84 12.22 6.74 17.07 11.58 4.84 4.84 8.74 10.64 11.58 17.22 2.83 6.57 4.26 13.7 4.26 21.17s-1.43 14.61-4.26 21.17c-2.84 6.58-6.73 12.37-11.58 17.22-1.4 1.4-14.05 10.26-17.07 11.58-6.46 2.83-13.43 4.26-20.71 4.26s-14.25-1.43-20.71-4.26c-6.47-2.83-12.21-6.72-17.07-11.58-4.86-4.86-8.75-10.65-11.58-17.22-2.83-6.56-4.26-13.68-4.26-21.17s1.43-14.61 4.26-21.17c2.83-6.57 6.73-12.37 11.58-17.22 4.85-4.85 10.59-8.75 17.07-11.58 6.47-2.83 13.43-4.26 20.71-4.26zM500.03 145.89c-4.56-4.04-9.92-7.4-15.94-10-6-2.58-12.39-4.52-18.98-5.76-5.11-1.02-10.12-2.26-14.91-3.69-4.77-1.42-9.09-3.12-12.84-5.05-3.72-1.91-6.72-4.04-8.92-6.34-2.15-2.24-3.2-4.66-3.2-7.38 0-4.76 1.99-8.72 6.07-12.11 4.07-3.37 9.06-5.08 14.83-5.08 6.59 0 12.3 1.97 16.99 5.86 4.64 3.86 7 8.71 7 14.43v.71h38.47v-.71c0-7.28-1.69-14.24-5.02-20.7-3.32-6.43-7.85-12.11-13.45-16.89-5.6-4.77-12.26-8.6-19.82-11.39-7.56-2.8-15.69-4.21-24.17-4.21s-16.15 1.37-23.4 4.06c-7.25 2.69-13.61 6.43-18.9 11.09-5.3 4.68-9.51 10.21-12.52 16.43-3.02 6.24-4.55 12.99-4.55 20.07 0 6.69 1.75 12.85 5.21 18.29 3.43 5.41 8.17 10.3 14.08 14.55 5.9 4.24 12.86 7.86 20.7 10.74 7.81 2.88 16.26 5.18 25.11 6.82 7.67 1.62 13.8 4.32 18.21 8.03 4.34 3.65 6.54 8.09 6.54 13.19 0 5.92-2.61 11.09-7.77 15.35-5.19 4.3-11.69 6.47-19.3 6.47s-14.11-2.23-19.3-6.62c-5.16-4.36-7.77-9.68-7.77-15.82v-.71h-38.47v.71c0 7.7 1.74 14.97 5.17 21.63 3.42 6.64 8.15 12.53 14.07 17.51 5.91 4.97 12.94 8.96 20.9 11.86 7.97 2.9 16.51 4.36 25.4 4.36s17.69-1.47 25.56-4.37c7.87-2.9 14.85-6.94 20.75-12.02 5.91-5.08 10.64-11.12 14.07-17.97 3.43-6.86 5.17-14.24 5.17-21.93 0-7.07-1.38-13.46-4.09-18.99-2.71-5.51-6.4-10.36-10.97-14.42zM561.75 0c-6.34 0-11.81 2.25-16.25 6.69-4.44 4.44-6.69 9.91-6.69 16.25s2.25 11.81 6.69 16.25c4.44 4.44 9.91 6.69 16.25 6.69s11.81-2.25 16.25-6.69c4.44-4.44 6.69-9.91 6.69-16.25s-2.25-11.81-6.69-16.25c-4.44-4.44-9.91-6.69-16.25-6.69zM845.53 111.94c-4.75-10.74-11.35-20.26-19.6-28.32-8.26-8.05-18.1-14.49-29.24-19.13-11.15-4.65-23.19-7-35.78-7s-24.63 2.36-35.78 7c-11.15 4.65-20.99 11.08-29.24 19.13-8.26 8.05-14.86 17.58-19.6 28.32-4.75 10.74-7.16 22.37-7.16 34.56s2.41 23.82 7.16 34.56c4.75 10.74 11.34 20.26 19.6 28.32 8.25 8.05 18.09 14.49 29.24 19.13 11.15 4.65 23.19 7 35.78 7s24.63-2.35 35.78-7c11.14-4.64 20.98-11.08 29.24-19.13 8.26-8.06 14.85-17.58 19.6-28.32 4.75-10.74 7.16-22.37 7.16-34.56s-2.41-23.81-7.16-34.56h0zm-31.31 34.56c0 7.49-1.38 14.62-4.11 21.18-2.73 6.57-6.57 12.36-11.42 17.21-4.86 4.85-10.6 8.75-17.07 11.58-6.46 2.83-13.43 4.26-20.71 4.26s-14.25-1.43-20.71-4.26c-6.47-2.83-12.21-6.72-17.07-11.58-4.85-4.85-8.69-10.64-11.42-17.21-2.73-6.57-4.11-13.69-4.11-21.18s1.38-14.61 4.11-21.18c2.73-6.57 6.57-12.36 11.42-17.21 4.85-4.85 10.59-8.75 17.07-11.58 6.47-2.83 13.43-4.26 20.71-4.26s14.24 1.43 20.71 4.26c6.48 2.84 12.22 6.74 17.07 11.58 4.85 4.85 8.69 10.64 11.42 17.21 2.73 6.57 4.11 13.7 4.11 21.18zM1034.38 108.05c-4.34-10.02-10.31-18.87-17.75-26.31-7.44-7.44-16.29-13.41-26.31-17.75-10.03-4.34-20.88-6.54-32.24-6.54s-22.21 2.2-32.24 6.54c-10.02 4.33-18.87 10.31-26.31 17.75-7.44 7.44-13.41 16.29-17.75 26.31-4.34 10.03-6.54 20.87-6.54 32.24v90.84h38.47v-93c0-6.26 1.18-12.24 3.5-17.79 2.32-5.55 5.49-10.46 9.43-14.6 3.94-4.13 8.69-7.46 14.13-9.87 5.44-2.42 11.26-3.64 17.31-3.64s11.87 1.23 17.31 3.64c5.44 2.42 10.19 5.74 14.13 9.87 3.93 4.14 7.1 9.05 9.43 14.6 2.32 5.56 3.5 11.54 3.5 17.79v93h38.47v-90.84c0-11.36-2.2-22.21-6.54-32.24zM1068.75 59.18c2.35 0 3.71-.82 3.71-2.74 0-1.75-1.54-2.43-3.17-2.43h-3.89v5.17h3.36zm-.99 2.68h-2.27v7.64h-3.69v-18.44h6.98c4.63 0 7.23 1.46 7.23 5.48 0 3.25-2.1 5.05-4.76 5.13l4.8 7.83h-3.77l-4.53-7.64zm.78 16.44c9.83 0 17.82-7.99 17.82-17.86s-7.99-17.86-17.82-17.86-17.82 8.01-17.82 17.86 7.99 17.86 17.82 17.86m0-40.85c12.65 0 22.93 10.28 22.93 22.99s-10.28 22.99-22.93 22.99-22.93-10.3-22.93-22.99 10.28-22.99 22.93-22.99" fill="#1861f5"/></svg>